<?xml version="1.0" standalone="no"?>
<!DOCTYPE svg PUBLIC "-//W3C//DTD SVG 20010904//EN"
 "http://www.w3.org/TR/2001/REC-SVG-20010904/DTD/svg10.dtd">
<svg version="1.0" xmlns="http://www.w3.org/2000/svg"
 width="1000.000000pt" height="1080.000000pt" viewBox="0 0 1000.000000 1080.000000"
 preserveAspectRatio="xMidYMid meet">

<g transform="translate(0.000000,1080.000000) scale(0.100000,-0.100000)"
fill="#000000" stroke="none">
<path d="M4494 8712 c-88 -41 -137 -145 -114 -240 46 -195 316 -220 401 -37
41 88 7 210 -74 263 -53 35 -152 42 -213 14z m166 -71 c84 -60 83 -195 -1
-245 -92 -54 -209 17 -209 127 0 114 120 182 210 118z"/>
<path d="M5480 8706 c0 -8 -3 -21 -6 -30 -4 -11 2 -17 23 -22 15 -3 44 -10 64
-15 l35 -9 -36 -162 c-20 -90 -34 -166 -31 -170 3 -3 19 -8 36 -10 l29 -3 36
160 36 160 29 -1 c17 0 46 -4 66 -8 35 -8 37 -7 41 24 3 18 0 33 -6 36 -21 7
-291 64 -303 64 -7 0 -13 -6 -13 -14z"/>
<path d="M3915 8547 c-82 -33 -151 -61 -153 -62 -2 -2 3 -16 10 -33 l13 -31
59 25 c33 13 60 23 61 21 1 -1 30 -72 65 -158 l63 -157 31 13 c17 8 30 20 29
27 -2 8 -29 80 -62 160 l-59 146 59 23 c52 19 59 24 53 43 -13 44 -16 44 -169
-17z"/>
<path d="M6032 8365 c-45 -96 -82 -179 -82 -183 0 -12 49 -34 60 -27 4 3 18
30 31 60 12 30 27 55 31 55 7 0 67 -27 76 -35 1 -1 9 -40 18 -87 15 -81 17
-86 50 -102 19 -9 36 -16 38 -16 2 0 -3 33 -10 73 -20 104 -20 104 26 112 81
14 130 110 93 182 -16 32 -35 46 -123 91 -57 28 -109 52 -115 52 -6 0 -48 -79
-93 -175z m242 32 c50 -33 25 -117 -34 -117 -26 0 -140 44 -140 54 0 3 12 32
26 64 l26 60 48 -22 c26 -12 59 -30 74 -39z"/>
<path d="M6785 8116 c-11 -7 -96 -53 -189 -101 l-170 -88 29 -23 29 -23 48 25
49 25 74 -61 c41 -34 75 -62 75 -63 0 -1 -7 -24 -15 -50 -14 -48 -14 -49 13
-72 15 -13 28 -22 30 -20 2 2 29 98 61 214 l58 211 -22 20 c-24 23 -42 24 -70
6z m1 -103 c-23 -97 -38 -134 -49 -125 -7 5 -31 24 -54 42 l-43 33 68 38 c37
21 71 38 76 39 4 0 5 -12 2 -27z"/>
<path d="M3041 8000 l-112 -102 73 -81 c40 -44 103 -112 139 -151 l66 -71 109
100 c60 55 111 101 113 102 3 2 -6 14 -19 28 l-23 24 -88 -79 -87 -80 -35 41
-35 42 61 56 c33 31 67 61 76 68 14 10 14 13 -3 32 -11 12 -23 21 -28 21 -6 0
-42 -29 -81 -65 l-72 -65 -32 37 c-18 21 -32 40 -32 43 0 3 36 37 79 75 44 39
79 75 80 81 0 6 -8 19 -19 28 -18 16 -23 12 -130 -84z"/>
<path d="M4825 8034 c-301 -31 -547 -102 -805 -231 -284 -141 -511 -320 -721
-569 -265 -313 -447 -739 -499 -1164 -24 -197 -8 -516 35 -720 179 -853 866
-1537 1720 -1714 187 -38 325 -49 528 -43 330 10 593 73 882 211 679 324 1136
945 1251 1696 21 140 24 450 5 590 -68 506 -284 945 -641 1300 -338 337 -760
551 -1235 625 -96 15 -437 28 -520 19z m-727 -783 c2 -7 -5 -15 -17 -18 -12
-3 -21 -13 -21 -24 0 -11 -7 -19 -15 -19 -10 0 -15 10 -15 33 0 19 2 36 5 39
10 10 59 2 63 -11z m177 -2 c0 -17 -83 -24 -105 -9 -24 16 5 28 59 25 31 -1
46 -7 46 -16z m179 12 c5 -1 3 -8 -4 -16 -14 -17 -95 -21 -105 -5 -15 24 7 28
109 21z m171 -12 c0 -17 -83 -24 -105 -9 -24 16 3 27 58 25 32 -2 47 -7 47
-16z m184 6 c12 -12 -18 -25 -59 -25 -47 0 -67 10 -56 29 5 8 106 4 115 -4z
m164 -16 c-14 -14 -95 -7 -100 8 -3 8 12 13 44 15 52 3 74 -5 56 -23z m184 17
c13 -12 -20 -26 -64 -26 -42 0 -66 16 -44 29 14 9 99 7 108 -3z m168 -7 c0
-17 -82 -26 -97 -11 -18 18 -1 27 49 26 35 0 48 -4 48 -15z m180 1 c0 -18 -82
-26 -105 -10 -23 15 0 25 57 25 36 0 48 -4 48 -15z m171 7 c14 -14 -11 -27
-51 -27 -43 0 -62 11 -51 29 6 9 92 8 102 -2z m180 -16 c-8 -12 -74 -15 -100
-5 -31 12 -15 23 37 26 55 3 74 -3 63 -21z m134 14 c14 -17 6 -60 -11 -60 -8
0 -15 10 -17 22 -2 13 -8 20 -17 17 -15 -6 -29 11 -21 25 8 13 54 10 66 -4z
m-1930 -180 c0 -42 -3 -55 -15 -55 -12 0 -15 13 -15 55 0 42 3 55 15 55 12 0
15 -13 15 -55z m1938 0 c3 -51 -12 -81 -28 -55 -11 17 -13 93 -3 104 16 15 28
-4 31 -49z m-1943 -153 c0 -46 -19 -44 -23 2 -3 28 0 37 10 34 7 -3 13 -19 13
-36z m1935 19 c0 -5 2 -16 6 -24 5 -15 -40 -77 -57 -77 -14 0 -11 26 5 39 8 7
18 26 21 42 6 26 25 42 25 20z m-121 -190 c-34 -39 -59 -52 -59 -29 0 7 17 29
37 50 50 51 69 34 22 -21z m-1521 -81 c62 -25 112 -47 112 -50 0 -3 -16 -16
-35 -29 -27 -18 -35 -31 -35 -55 l-1 -31 -32 39 c-69 86 -69 85 -45 28 l21
-53 -34 -29 c-19 -16 -37 -29 -40 -30 -6 0 -18 71 -35 209 -5 34 -3 52 3 50 6
-2 60 -24 121 -49z m1426 -9 c9 -14 -65 -94 -77 -82 -6 6 1 23 22 50 33 41 45
48 55 32z m-145 -180 c-34 -39 -59 -52 -59 -29 0 7 17 29 37 50 50 51 69 34
22 -21z m-615 -30 c111 -56 154 -73 201 -77 71 -8 95 -25 95 -69 0 -27 -22
-57 -136 -186 -91 -103 -143 -155 -159 -157 -19 -3 -51 27 -171 158 -189 207
-194 213 -194 269 0 95 60 145 164 137 49 -4 85 -17 200 -75z m-542 -8 c20
-18 24 -43 7 -43 -11 0 -48 40 -49 53 0 13 23 8 42 -10z m1062 -51 c7 -11 -64
-93 -75 -86 -14 8 -11 17 22 57 30 37 43 44 53 29z m-950 -76 c40 -47 43 -56
22 -56 -18 0 -76 66 -76 85 0 26 17 16 54 -29z m801 -106 c-40 -41 -55 -49
-55 -28 0 21 73 89 84 78 7 -7 -3 -23 -29 -50z m-645 -77 c0 -23 -24 -12 -58
27 -46 54 -31 73 19 24 22 -21 39 -44 39 -51z m554 -11 c7 -11 -64 -93 -75
-86 -15 9 -10 22 22 59 31 35 44 42 53 27z m-455 -93 c46 -57 26 -73 -22 -19
-21 22 -37 45 -37 50 0 22 29 8 59 -31z m336 -39 c6 -10 -61 -90 -76 -90 -17
0 -9 22 24 60 34 41 42 46 52 30z m-210 -101 c27 -30 34 -44 26 -52 -9 -9 -22
0 -50 33 -36 41 -42 60 -22 60 5 0 25 -18 46 -41z m88 -35 c9 -9 -54 -84 -70
-84 -22 0 -15 22 19 57 33 34 40 38 51 27z m35 -103 c32 -40 40 -61 23 -61
-11 0 -81 77 -81 90 0 22 28 8 58 -29z m-153 -31 c6 -10 -61 -90 -76 -90 -17
0 -9 21 23 61 32 40 43 46 53 29z m277 -107 c39 -38 49 -63 25 -63 -15 0 -77
72 -77 89 0 19 13 12 52 -26z m-399 -29 c8 -9 -55 -84 -70 -84 -22 0 -14 23
19 57 33 34 40 38 51 27z m530 -118 c41 -49 44 -56 23 -56 -18 0 -88 78 -81
90 10 17 20 11 58 -34z m-648 -16 c6 -10 -61 -90 -76 -90 -17 0 -9 22 22 61
31 40 43 46 54 29z m805 -170 c0 -22 -28 -8 -59 30 -45 56 -28 74 21 22 21
-23 38 -46 38 -52z m-920 33 c-1 -12 -69 -83 -80 -83 -19 0 -10 24 22 57 30
31 58 43 58 26z m1018 -133 c45 -55 31 -72 -19 -24 -22 21 -39 44 -39 51 0 24
25 13 58 -27z m-1144 1 c6 -9 -61 -91 -75 -91 -18 0 -9 26 22 63 31 37 43 44
53 28z m1270 -143 c26 -30 33 -45 25 -52 -8 -8 -22 2 -50 34 -21 25 -39 48
-39 53 0 20 32 3 64 -35z m-414 11 c160 -25 304 -101 420 -218 112 -114 179
-241 180 -338 l0 -43 -890 0 -890 0 0 33 c0 154 131 352 281 426 107 52 192
65 339 51 148 -15 212 -6 285 41 50 31 129 57 180 58 17 1 59 -4 95 -10z
m-970 -6 c0 -10 -72 -83 -82 -83 -17 0 -6 26 24 57 29 30 58 43 58 26z m1508
-143 c31 -37 40 -60 25 -60 -13 0 -83 74 -83 87 0 24 25 13 58 -27z m-1634 12
c5 -9 -62 -92 -75 -92 -18 0 -9 26 22 63 30 37 43 44 53 29z m1755 -147 c17
-20 31 -39 31 -43 0 -11 -19 -37 -22 -32 -22 30 -58 92 -58 100 0 19 18 10 49
-25z m-1886 -17 c-12 -13 -23 -32 -25 -42 -5 -32 -28 -31 -28 1 0 35 47 90 63
74 8 -8 5 -17 -10 -33z m1911 -134 c16 -41 -1 -130 -21 -110 -9 8 -14 106 -6
119 7 12 20 8 27 -9z m-1939 -54 c0 -34 -5 -55 -12 -57 -10 -4 -13 12 -13 57
0 45 3 61 13 58 7 -3 12 -24 12 -58z m3 -148 c2 -14 11 -22 23 -22 11 0 19 -7
19 -16 0 -11 -8 -14 -32 -12 -30 3 -33 6 -36 42 -2 28 0 37 10 34 7 -3 14 -14
16 -26z m1937 8 c12 -38 -4 -61 -38 -58 -37 4 -48 25 -15 30 13 2 24 9 24 16
3 29 4 32 13 32 5 0 13 -9 16 -20z m-1717 -42 c-3 -8 -24 -13 -58 -13 -34 0
-55 5 -57 13 -4 9 12 12 57 12 45 0 61 -3 58 -12z m172 -3 c0 -15 -102 -13
-108 3 -3 10 9 12 52 10 31 -2 56 -7 56 -13z m178 3 c-5 -14 -80 -23 -105 -14
-30 12 0 26 53 26 40 0 55 -4 52 -12z m180 0 c-3 -8 -24 -13 -58 -13 -34 0
-55 5 -57 13 -4 9 12 12 57 12 45 0 61 -3 58 -12z m170 0 c-3 -8 -26 -14 -56
-16 -42 -2 -52 0 -52 12 0 13 12 16 56 16 40 0 55 -4 52 -12z m180 0 c-3 -8
-24 -13 -58 -13 -34 0 -55 5 -57 13 -4 9 12 12 57 12 45 0 61 -3 58 -12z m172
-3 c0 -12 -13 -15 -55 -15 -42 0 -55 3 -55 15 0 12 13 15 55 15 42 0 55 -3 55
-15z m178 3 c-3 -8 -24 -13 -58 -13 -34 0 -55 5 -57 13 -4 9 12 12 57 12 45 0
61 -3 58 -12z m172 -3 c0 -15 -102 -13 -108 3 -3 10 9 12 52 10 31 -2 56 -7
56 -13z m178 3 c-5 -14 -80 -23 -105 -14 -30 12 0 26 53 26 40 0 55 -4 52 -12z"/>
<path d="M7082 7648 c-134 -245 -125 -222 -98 -247 l22 -21 204 60 c112 33
205 62 208 64 7 8 -30 56 -43 56 -7 0 -76 -20 -153 -45 -77 -25 -144 -45 -150
-45 -5 0 26 62 69 138 43 75 79 142 78 147 0 11 -34 55 -42 55 -3 0 -46 -73
-95 -162z"/>
<path d="M2665 7597 l-17 -33 41 -96 c22 -53 41 -99 41 -102 0 -4 -51 -6 -114
-6 -110 0 -114 -1 -130 -25 -9 -13 -16 -28 -16 -33 0 -4 75 -59 166 -121 130
-89 168 -110 175 -100 32 48 35 44 -86 126 l-116 78 111 3 c60 1 110 4 110 6
0 1 -18 47 -40 101 -22 54 -38 100 -37 102 2 2 56 -33 119 -77 l116 -79 16 24
c9 13 16 28 16 33 0 8 -321 232 -333 232 -2 0 -12 -15 -22 -33z"/>
<path d="M7408 7139 l-178 -89 18 -37 c51 -113 112 -233 117 -233 6 0 46 19
53 25 2 2 -20 49 -48 105 -28 56 -50 103 -48 105 6 5 87 45 91 45 3 0 24 -40
48 -90 23 -49 44 -90 45 -90 12 0 54 25 54 32 0 5 -18 44 -40 88 -22 44 -40
83 -40 88 0 4 20 18 44 29 l44 22 51 -105 51 -105 30 16 30 15 -67 135 c-37
74 -70 135 -73 134 -3 0 -85 -40 -182 -90z"/>
<path d="M2295 6950 c-8 -16 -15 -31 -15 -33 0 -11 372 -159 380 -151 5 5 11
20 15 34 5 24 0 27 -97 67 -57 23 -140 57 -185 77 l-83 35 -15 -29z"/>
<path d="M7635 6590 c-104 -27 -191 -49 -191 -49 -2 -1 33 -142 57 -233 8 -31
14 -38 34 -38 13 0 27 5 30 10 4 6 -4 53 -16 105 -13 52 -20 98 -16 101 4 4
77 24 163 45 86 21 157 39 159 41 5 6 -16 68 -23 67 -4 -1 -92 -23 -197 -49z"/>
<path d="M2155 6533 c-9 -43 -25 -114 -35 -158 -10 -44 -16 -83 -12 -86 4 -4
19 -9 33 -13 26 -6 27 -4 39 60 8 40 17 64 24 61 6 -2 80 -19 164 -38 164 -35
171 -35 172 17 0 19 -14 24 -154 54 -85 18 -159 36 -165 39 -7 5 -6 26 3 65
14 57 14 57 -11 67 -13 5 -28 9 -33 9 -4 0 -16 -35 -25 -77z"/>
<path d="M2310 5293 c-102 -25 -186 -46 -188 -48 -1 -1 12 -64 30 -139 l33
-137 29 6 c16 3 31 7 33 9 2 2 -7 48 -21 102 -14 55 -22 102 -18 105 4 3 78
23 165 43 92 22 157 43 157 49 0 27 -13 57 -24 56 -6 0 -94 -21 -196 -46z"/>
<path d="M7465 5173 c-21 -79 -36 -145 -34 -147 8 -8 383 -105 387 -101 6 5
82 288 79 291 -1 1 -15 5 -32 8 l-30 6 -29 -110 c-15 -60 -32 -110 -38 -110
-5 0 -29 5 -54 11 -34 9 -43 15 -40 28 26 86 46 173 42 180 -3 5 -17 11 -31
13 -22 5 -26 1 -36 -36 -34 -135 -42 -157 -55 -152 -7 3 -29 8 -48 12 -20 3
-36 11 -36 16 0 6 12 53 26 105 14 52 23 100 21 107 -3 8 -16 15 -30 18 -24 5
-26 1 -62 -139z"/>
<path d="M2505 4720 c-93 -49 -174 -91 -180 -93 -5 -2 21 -65 59 -140 l69
-136 28 15 29 14 -50 100 c-28 55 -50 102 -50 104 0 2 20 16 45 30 l45 25 45
-90 c25 -49 48 -89 51 -89 5 0 45 19 52 25 2 2 -17 43 -41 92 l-45 89 38 22
c22 12 43 22 48 22 4 0 16 -17 26 -37 10 -21 33 -66 52 -100 33 -59 36 -62 59
-51 14 6 25 15 25 20 0 9 -128 268 -133 268 -1 0 -78 -41 -172 -90z"/>
<path d="M7345 4709 c-17 -5 -43 -21 -57 -36 -26 -28 -118 -185 -118 -202 0
-7 279 -165 351 -199 6 -3 29 43 29 58 0 5 -27 23 -59 40 l-60 30 22 39 c23
43 21 42 145 57 45 5 55 10 67 34 8 16 15 32 15 36 0 7 -131 -3 -161 -12 -13
-4 -17 3 -17 37 -1 22 -8 51 -16 64 -28 42 -92 67 -141 54z m75 -89 c28 -28
24 -66 -13 -132 l-33 -57 -49 29 c-28 17 -54 31 -60 33 -12 5 40 106 67 130
27 23 63 22 88 -3z"/>
<path d="M2931 4301 l-24 -18 21 -30 c12 -16 28 -36 37 -43 8 -7 15 -18 15
-25 0 -11 -153 -146 -239 -211 -12 -9 -11 -15 5 -37 10 -15 22 -27 25 -27 4 0
64 48 135 106 l128 107 41 -48 42 -48 27 18 c22 15 24 20 14 34 -25 31 -200
241 -202 241 0 0 -12 -9 -25 -19z"/>
<path d="M6924 4136 c-53 -23 -102 -81 -120 -141 -58 -200 178 -353 336 -217
102 87 106 227 9 319 -19 17 -47 37 -62 42 -39 15 -126 13 -163 -3z m142 -72
c99 -47 112 -189 21 -244 -106 -65 -249 40 -217 160 9 35 50 82 80 93 30 11
83 7 116 -9z"/>
<path d="M3317 3822 c-58 -59 -67 -76 -44 -85 15 -6 157 79 157 93 0 5 -13 18
-28 29 l-29 20 -56 -57z"/>
<path d="M6323 3643 c-13 -8 -23 -19 -23 -24 0 -4 49 -82 108 -172 l109 -165
114 74 c63 40 115 79 116 86 2 7 -4 22 -12 32 -14 19 -18 17 -100 -37 -47 -32
-88 -57 -92 -57 -5 0 -48 63 -98 140 -49 77 -92 140 -95 139 -3 0 -15 -7 -27
-16z"/>
<path d="M3670 3619 c-63 -25 -94 -91 -71 -148 7 -15 37 -52 67 -82 54 -53 66
-83 42 -107 -33 -33 -110 3 -147 68 -25 46 -22 44 -56 28 -30 -14 -30 -13 -2
-63 26 -46 102 -101 152 -111 49 -9 105 21 128 68 25 50 12 90 -49 149 -63 61
-77 90 -58 118 26 36 62 27 115 -29 44 -47 49 -50 73 -39 32 15 32 16 1 61
-44 64 -142 108 -195 87z"/>
<path d="M5945 3453 c-45 -10 -185 -66 -185 -74 0 -8 129 -358 136 -371 5 -8
64 14 64 24 0 4 -9 31 -20 59 -12 29 -17 55 -13 59 4 4 29 14 55 24 91 33 134
89 125 158 -11 83 -86 139 -162 121z m48 -72 c13 -5 30 -23 37 -41 11 -28 11
-34 -7 -58 -11 -14 -43 -37 -72 -49 l-52 -23 -20 48 c-34 77 -31 91 21 112 53
22 61 23 93 11z"/>
<path d="M5440 3310 c-31 -4 -39 -12 -74 -77 -22 -40 -43 -73 -47 -73 -4 0
-30 27 -59 60 -47 54 -56 60 -91 60 -21 0 -39 -4 -39 -9 0 -4 34 -46 75 -92
41 -46 75 -87 75 -90 0 -4 -27 -54 -59 -113 l-60 -106 32 0 c44 0 47 4 97 94
l43 79 25 -29 c102 -119 97 -115 141 -108 l41 7 -73 79 c-108 119 -104 99 -41
212 30 55 53 102 52 105 -2 4 -19 4 -38 1z"/>
<path d="M4555 3278 c-14 -88 -45 -361 -41 -365 3 -3 69 -13 148 -23 150 -18
158 -17 158 26 0 20 -8 23 -115 34 -126 14 -120 10 -108 84 l6 38 56 -6 c31
-3 78 -9 104 -13 l48 -6 -3 34 -3 34 -92 10 c-51 6 -95 13 -98 16 -3 3 -2 27
1 52 8 54 -1 52 136 33 l97 -12 7 29 c3 15 4 30 2 32 -5 5 -243 35 -275 35
-17 0 -23 -7 -28 -32z"/>
<path d="M0 400 l0 -400 5000 0 5000 0 0 400 0 400 -5000 0 -5000 0 0 -400z
m2192 123 c23 -20 23 -57 1 -74 -15 -11 -16 -11 -5 1 27 31 11 72 -33 83 -19
4 -19 5 -1 6 11 0 28 -6 38 -16z m-69 -8 c-3 -9 -8 -14 -10 -11 -3 3 -2 9 2
15 9 16 15 13 8 -4z m-1760 -114 c22 -61 43 -108 47 -104 4 4 24 56 45 116 21
59 42 107 47 107 11 0 9 -5 -42 -149 -23 -64 -44 -107 -53 -109 -15 -3 -17 0
-67 143 -15 44 -31 88 -36 99 -5 13 -3 17 6 14 8 -2 32 -55 53 -117z m517 89
c0 -23 4 -30 20 -30 11 0 20 -4 20 -10 0 -5 -10 -10 -21 -10 -20 0 -21 -4 -17
-71 3 -55 8 -74 23 -85 23 -17 14 -29 -13 -15 -11 6 -22 25 -26 42 -10 51 -7
209 4 209 6 0 10 -13 10 -30z m515 16 c25 -11 33 -19 29 -30 -7 -19 -5 -19
-40 -1 -36 18 -55 19 -78 2 -28 -21 -9 -45 49 -62 87 -25 108 -74 54 -127 -29
-29 -33 -30 -90 -25 -68 6 -72 8 -64 29 5 13 12 14 40 5 50 -15 100 1 100 33
0 16 -8 28 -25 36 -87 40 -105 51 -108 67 -14 70 53 106 133 73z m105 -16 c0
-25 4 -30 25 -30 16 0 25 -6 25 -15 0 -9 -9 -15 -25 -15 -24 0 -25 -3 -25 -60
0 -55 2 -62 25 -72 14 -6 25 -15 25 -20 0 -18 -31 -20 -55 -4 -24 16 -25 20
-25 131 0 96 3 115 15 115 10 0 15 -10 15 -30z m482 -32 l3 -62 36 32 c20 18
45 32 55 32 14 0 9 -9 -21 -40 l-39 -40 42 -60 c40 -57 41 -60 20 -60 -16 0
-32 14 -53 45 -16 25 -33 45 -37 45 -5 0 -8 -20 -8 -45 0 -38 -3 -45 -20 -45
-19 0 -20 7 -20 130 0 122 1 130 20 130 16 0 19 -8 22 -62z m193 30 c1 -20 -2
-24 -11 -17 -8 7 -14 6 -17 -3 -3 -7 -6 2 -6 20 -1 27 3 33 17 30 11 -2 17
-13 17 -30z m-44 -35 c13 -16 12 -17 -3 -4 -17 13 -22 21 -14 21 2 0 10 -8 17
-17z m-1502 -19 c12 -15 21 -40 21 -55 0 -29 0 -29 -65 -29 -72 0 -83 -12 -44
-51 17 -17 30 -20 65 -16 43 4 59 -5 28 -17 -45 -17 -106 3 -123 41 -45 98 56
206 118 127z m191 16 c17 -11 10 -13 -40 -10 -47 2 -75 -28 -75 -80 0 -55 26
-80 82 -80 27 0 42 -4 38 -10 -9 -15 -78 -12 -102 5 -50 35 -50 135 0 170 24
17 74 20 97 5z m265 -13 c20 -16 28 -35 32 -69 5 -42 3 -50 -25 -78 -41 -41
-83 -41 -124 0 -28 28 -30 36 -25 78 9 82 84 119 142 69z m85 7 c0 -14 2 -14
22 0 24 17 38 20 38 9 0 -5 -14 -16 -30 -25 -29 -17 -30 -19 -30 -93 0 -43 -4
-75 -10 -75 -6 0 -10 40 -10 100 0 60 4 100 10 100 6 0 10 -7 10 -16z m537 1
c30 -21 44 -75 32 -120 -25 -88 -143 -88 -168 0 -20 72 20 135 84 135 17 0 40
-7 52 -15z m198 -5 c0 -10 -8 -14 -27 -12 -58 6 -91 -42 -67 -100 11 -28 36
-40 74 -35 12 1 20 -4 20 -13 0 -19 -48 -25 -85 -10 -63 26 -68 148 -6 179 31
15 91 9 91 -9z m5364 -83 c8 -26 17 -47 21 -47 4 0 13 21 21 47 8 25 20 48 26
50 13 5 -22 -113 -38 -131 -12 -14 -18 -5 -45 69 -16 44 -20 65 -12 63 7 -3
19 -26 27 -51z m638 38 c2 -6 -9 -11 -23 -10 -39 0 -42 -23 -5 -36 34 -12 49
-43 31 -64 -13 -16 -38 -19 -64 -9 -27 10 -18 22 17 20 38 -1 43 19 8 37 -36
18 -48 42 -31 62 14 17 61 17 67 0z m333 -20 c0 -35 16 -47 26 -20 4 8 13 15
22 15 13 0 13 -3 -2 -19 -16 -18 -16 -21 -1 -50 19 -38 8 -40 -22 -3 l-22 27
-1 -27 c0 -16 -4 -28 -10 -28 -6 0 -10 30 -10 70 0 40 4 70 10 70 6 0 10 -16
10 -35z m580 32 c0 -4 -34 -104 -45 -136 -3 -8 -8 -11 -11 -8 -8 7 38 147 48
147 4 0 8 -2 8 -3z m100 -16 c-5 -11 -15 -23 -20 -26 -6 -4 -1 -14 12 -25 20
-15 21 -21 10 -44 -11 -26 -34 -32 -66 -20 -28 11 -17 24 14 18 22 -5 31 -2
36 11 6 16 -3 28 -31 39 -6 2 -5 9 3 17 18 19 15 29 -8 29 -11 0 -20 5 -20 10
0 6 18 10 40 10 37 0 40 -2 30 -19z m110 0 c-5 -11 -15 -23 -20 -26 -6 -4 -1
-14 12 -25 20 -15 21 -21 10 -44 -11 -26 -34 -32 -66 -20 -28 11 -17 24 14 18
22 -5 31 -2 36 11 6 16 -3 28 -31 39 -6 2 -5 9 3 17 18 19 15 29 -8 29 -11 0
-20 5 -20 10 0 6 18 10 40 10 37 0 40 -2 30 -19z m110 9 c0 -5 -11 -10 -25
-10 -32 0 -32 -16 -1 -24 27 -7 41 -35 31 -65 -7 -23 -37 -35 -65 -26 -31 10
-24 23 13 21 28 -1 32 2 32 24 0 21 -4 25 -30 24 -29 -1 -30 0 -27 32 4 31 7
34 38 34 19 0 34 -4 34 -10z m107 -2 c14 -23 12 -106 -2 -118 -35 -29 -91 12
-68 50 7 10 10 26 7 35 -13 33 44 62 63 33z m115 -5 c39 -35 8 -122 -44 -123
-10 0 -18 5 -18 10 0 6 9 10 20 10 10 0 24 9 31 21 9 18 8 20 -9 15 -38 -12
-68 44 -40 72 17 17 38 15 60 -5z m118 7 c0 -5 -11 -10 -25 -10 -32 0 -32 -16
-1 -24 27 -7 41 -35 31 -65 -7 -23 -37 -35 -65 -26 -31 10 -24 23 13 21 28 -1
32 2 32 24 0 22 -4 25 -33 23 -26 -1 -32 2 -28 14 3 8 6 23 6 34 0 15 7 19 35
19 19 0 35 -4 35 -10z m114 -12 c44 -63 -17 -154 -68 -102 -9 9 -16 32 -16 54
0 64 52 94 84 48z m126 17 c0 -6 -60 -127 -66 -134 -2 -2 -7 -2 -10 1 -3 3 6
29 20 57 14 28 26 53 26 56 0 3 -13 5 -30 5 -16 0 -30 5 -30 10 0 6 20 10 45
10 25 0 45 -2 45 -5z m-2109 -53 c-15 -5 -14 -59 2 -65 6 -2 9 -7 6 -11 -15
-17 -37 8 -41 47 -6 59 0 72 24 50 11 -10 15 -19 9 -21z m359 13 c9 -10 9 -15
1 -15 -15 0 -14 -57 2 -63 6 -2 9 -8 4 -13 -19 -20 -43 38 -38 94 1 16 16 15
31 -3z m-532 -7 c23 -23 13 -38 -24 -38 -46 0 -41 -23 7 -30 27 -4 30 -7 16
-13 -28 -11 -44 -9 -61 9 -32 31 -14 84 29 84 12 0 26 -5 33 -12z m109 5 c14
-6 10 -9 -17 -13 -29 -4 -35 -9 -35 -30 0 -21 5 -26 33 -28 36 -4 34 -22 -3
-22 -28 0 -55 24 -55 50 0 22 25 50 45 50 7 0 22 -3 32 -7z m177 -9 c21 -20
20 -43 -1 -66 -20 -22 -46 -23 -67 -2 -31 30 -9 84 34 84 10 0 26 -7 34 -16z
m86 6 c0 -4 -7 -10 -15 -14 -9 -3 -15 -19 -15 -41 0 -19 -4 -35 -10 -35 -5 0
-10 22 -10 49 0 45 2 49 25 49 14 0 25 -4 25 -8z m274 -6 c21 -20 20 -43 -1
-66 -20 -22 -46 -23 -67 -2 -31 30 -9 84 34 84 10 0 26 -7 34 -16z m113 9 c14
-6 10 -9 -17 -13 -29 -4 -35 -9 -35 -30 0 -21 5 -26 33 -28 36 -4 34 -22 -3
-22 -28 0 -55 24 -55 50 0 22 25 50 45 50 7 0 22 -3 32 -7z m250 0 c14 -6 10
-9 -17 -13 -29 -4 -35 -9 -35 -30 0 -21 5 -26 33 -28 36 -4 34 -22 -3 -22 -28
0 -55 24 -55 50 0 22 25 50 45 50 7 0 22 -3 32 -7z m107 -9 c21 -20 20 -43 -1
-66 -20 -22 -46 -23 -67 -2 -31 30 -9 84 34 84 10 0 26 -7 34 -16z m116 4 c0
-9 3 -9 12 0 17 17 45 15 52 -4 10 -25 7 -84 -4 -84 -5 0 -10 18 -10 41 0 33
-3 40 -17 37 -13 -2 -19 -14 -21 -41 -4 -50 -22 -47 -22 4 0 36 -2 40 -22 37
-19 -2 -24 -10 -26 -40 -5 -55 -22 -46 -22 10 l0 49 40 1 c25 1 40 -3 40 -10z
m-330 -78 c0 -5 -4 -10 -10 -10 -5 0 -10 5 -10 10 0 6 5 10 10 10 6 0 10 -4
10 -10z"/>
<path d="M2150 500 c0 -5 5 -10 10 -10 6 0 10 5 10 10 0 6 -4 10 -10 10 -5 0
-10 -4 -10 -10z"/>
<path d="M536 418 c-28 -39 -21 -48 39 -48 59 0 67 9 45 51 -15 27 -64 25 -84
-3z"/>
<path d="M986 424 c-50 -50 -21 -144 44 -144 48 0 80 50 66 104 -13 53 -75 75
-110 40z"/>
<path d="M1616 408 c-32 -46 -8 -118 39 -118 28 0 55 34 55 70 0 36 -27 70
-55 70 -13 0 -31 -10 -39 -22z"/>
<path d="M9202 374 c2 -11 11 -20 22 -22 13 -3 17 1 14 14 -2 11 -11 20 -22
22 -13 3 -17 -1 -14 -14z"/>
<path d="M9194 325 c-8 -21 10 -39 30 -32 22 9 20 24 -4 37 -16 9 -22 8 -26
-5z"/>
<path d="M9314 375 c-4 -9 -2 -21 4 -27 15 -15 44 -1 40 19 -4 23 -36 29 -44
8z"/>
<path d="M9534 365 c-9 -38 3 -75 26 -75 13 0 22 9 26 25 9 38 -3 75 -26 75
-13 0 -22 -9 -26 -25z"/>
<path d="M7385 340 c-4 -6 5 -10 19 -10 14 0 26 5 26 10 0 6 -9 10 -19 10 -11
0 -23 -4 -26 -10z"/>
<path d="M7664 336 c-10 -26 4 -48 28 -44 17 2 23 10 23 28 0 18 -6 26 -23 28
-13 2 -25 -3 -28 -12z"/>
<path d="M8024 336 c-10 -26 4 -48 28 -44 17 2 23 10 23 28 0 18 -6 26 -23 28
-13 2 -25 -3 -28 -12z"/>
<path d="M8494 336 c-10 -26 4 -48 28 -44 17 2 23 10 23 28 0 18 -6 26 -23 28
-13 2 -25 -3 -28 -12z"/>
</g>
</svg>
